<?xml version="1.0" encoding="UTF-8" standalone="no"?>
<svg
   width="800px"
   height="800px"
   viewBox="0 0 48 48"
   enable-background="new 0 0 48 48"
   id="Layer_3"
   version="1.1"
   xml:space="preserve"
   sodipodi:docname="checkbox-box-check-svgrepo-com.svg"
   inkscape:version="1.3.2 (091e20e, 2023-11-25)"
   xmlns:inkscape="http://www.inkscape.org/namespaces/inkscape"
   xmlns:sodipodi="http://sodipodi.sourceforge.net/DTD/sodipodi-0.dtd"
   xmlns="http://www.w3.org/2000/svg"
   xmlns:svg="http://www.w3.org/2000/svg"><defs
   id="defs2"><linearGradient
     id="swatch2"
     inkscape:swatch="solid"><stop
       style="stop-color:#241f20;stop-opacity:1;"
       offset="0"
       id="stop2" /></linearGradient></defs><sodipodi:namedview
   id="namedview2"
   pagecolor="#505050"
   bordercolor="#ffffff"
   borderopacity="1"
   inkscape:showpageshadow="0"
   inkscape:pageopacity="0"
   inkscape:pagecheckerboard="1"
   inkscape:deskcolor="#505050"
   inkscape:zoom="2.40375"
   inkscape:cx="399.79199"
   inkscape:cy="400"
   inkscape:window-width="3840"
   inkscape:window-height="2091"
   inkscape:window-x="0"
   inkscape:window-y="0"
   inkscape:window-maximized="1"
   inkscape:current-layer="Layer_3" />

<g
   id="g2">

<path
   d="M0,48h30V18H0V48z M4,22h22v22H4V22z"
   fill="#241F20"
   id="path1"
   style="fill:#78c9ee;fill-opacity:1" />

<polygon
   fill="#241F20"
   points="18,0 18,15 22,15 22,4 44,4 44,26 33.312,26 33.312,30 48,30 48,0  "
   id="polygon1"
   style="fill:#78c9ee;fill-opacity:1" />

<polygon
   fill="#241F20"
   points="18.266,30.636 18.273,30.642 12.534,36.381 7.601,31.449 6.002,33.048 11.656,38.702 11.65,38.708    12.518,39.575 12.523,39.569 12.528,39.575 12.915,39.188 12.919,39.191 19.872,32.24 24.081,28.029 22.476,26.425  "
   id="polygon2"
   style="fill:#78c9ee;fill-opacity:1" />

</g>

</svg>
