<?xml version="1.0" encoding="UTF-8" standalone="no"?><svg height="799.99841" width="799.99927" version="1.1" id="_x32_" viewBox="0 0 511.99953 511.99898" xml:space="preserve" xmlns="http://www.w3.org/2000/svg" xmlns:svg="http://www.w3.org/2000/svg"><defs id="defs1" /><style type="text/css" id="style1"> .st0{fill:#000000;} </style><g style="fill:none" id="g2" transform="matrix(10.256091,-2.9309362,2.9309362,10.256091,-60.489147,80.19629)"><path d="M 41.3244,34 C 37.8663,39.978 31.4028,44 24,44 M 41.3244,34 H 34 m 7.3244,0 v 7.3244" stroke="#000000" stroke-width="4" stroke-linecap="round" stroke-linejoin="round" id="path2" style="stroke:#ffffff;stroke-opacity:1" /><path d="M 6.67566,14 C 10.1338,8.02199 16.5972,4 24,4 M 6.67566,14 H 14 M 6.67566,14 V 6.67564" stroke="#000000" stroke-width="4" stroke-linecap="round" stroke-linejoin="round" id="path4" style="stroke:#ffffff;stroke-opacity:1" /></g><g id="g1" style="display:inline" transform="translate(-4.9999444e-4)"><path class="st0" d="M 486.675,100.502 C 472.884,86.711 455.234,78.168 436.146,75.856 433.853,56.893 425.326,39.153 411.488,25.319 395.162,8.992 373.449,0 350.357,0 327.265,0 305.556,8.992 289.226,25.318 262.257,52.291 256.574,93.109 273.452,125.9 L 125.843,273.496 c -12.144,-6.217 -25.723,-9.543 -39.484,-9.543 -23.074,0 -44.764,8.984 -61.078,25.297 -33.707,33.703 -33.707,88.545 -0.002,122.248 13.783,13.791 31.434,22.334 50.533,24.646 2.289,18.963 10.818,36.703 24.656,50.535 16.328,16.328 38.035,25.32 61.129,25.32 23.092,0 44.801,-8.992 61.127,-25.32 26.98,-26.971 32.666,-67.783 15.779,-100.572 L 386.109,238.511 c 12.146,6.217 25.723,9.535 39.486,9.535 23.074,0 44.768,-8.978 61.08,-25.297 C 503.007,206.422 512,184.713 512,161.625 c 0,-23.086 -8.993,-44.797 -25.325,-61.123 z m -26.234,96.016 c -9.308,9.305 -21.682,14.428 -34.846,14.428 -11.08,0 -21.944,-3.762 -30.59,-10.609 l -12.951,-10.246 -191.996,191.987 10.252,12.949 c 15.518,19.602 13.877,47.725 -3.82,65.422 -9.322,9.318 -21.715,14.449 -34.892,14.449 -13.18,0 -25.57,-5.131 -34.895,-14.449 -10.682,-10.682 -15.812,-25.465 -14.078,-40.558 l 2.668,-23.211 -23.215,2.666 c -1.898,0.217 -3.805,0.326 -5.715,0.326 -13.186,0 -25.561,-5.115 -34.848,-14.406 -19.236,-19.238 -19.236,-50.543 0.004,-69.783 9.305,-9.305 21.676,-14.428 34.84,-14.428 11.08,0 21.943,3.762 30.59,10.609 L 129.898,321.91 321.89,129.938 311.644,116.987 c -15.516,-19.608 -13.871,-47.74 3.818,-65.436 9.324,-9.318 21.717,-14.449 34.894,-14.449 13.182,0 25.574,5.131 34.896,14.449 10.68,10.682 15.811,25.465 14.074,40.558 l -2.152,18.731 -0.541,4.238 0.054,-0.006 -0.027,0.248 23.215,-2.666 c 15.037,-1.74 29.926,3.441 40.564,14.08 19.24,19.239 19.24,50.543 0.002,69.784 z" id="path1" style="fill:#ffffff;fill-opacity:1" /></g></svg>